<?xml version="1.0" encoding="UTF-8" standalone="no"?>
<!-- Created with Inkscape (http://www.inkscape.org/) -->

<svg
   xmlns:dc="http://purl.org/dc/elements/1.1/"
   xmlns:cc="http://creativecommons.org/ns#"
   xmlns:rdf="http://www.w3.org/1999/02/22-rdf-syntax-ns#"
   xmlns:svg="http://www.w3.org/2000/svg"
   xmlns="http://www.w3.org/2000/svg"
   version="1.1"
   width="300"
   height="124.47073"
   id="svg7416">
  <defs
     id="defs7418">
    <clipPath
       id="clip1">
      <path
         d="m 216.05859,101.22656 c 0,0 -0.83984,0.25 -0.83984,0.25 14.57812,6.11719 23.42187,13.77735 22.55078,21.05078 -1.54687,12.92969 -33.21094,19.73438 -70.71484,15.20313 -37.50782,-4.52735 -66.66016,-18.6875 -65.11328,-31.61328 0.80078,-6.675784 9.6289,-11.718752 23.14062,-14.410159 0,0 -1.91797,-0.351562 -1.91797,-0.351562 -16.625,2.804687 -27.640622,8.621094 -28.582029,16.484371 -1.714843,14.28907 30.507809,29.92969 71.960939,34.9375 41.45703,5.01172 76.44922,-2.51172 78.15625,-16.80078 1.03515,-8.63672 -10.33203,-17.76953 -28.64063,-24.75 z"
         id="path618" />
    </clipPath>
    <linearGradient
       x1="-0.628672"
       y1="0"
       x2="0.92890102"
       y2="0"
       id="linear0"
       gradientUnits="userSpaceOnUse"
       gradientTransform="matrix(-89.42612,-51.39943,51.39943,-89.42612,183.96241,125.13965)">
      <stop
         id="stop621"
         style="stop-color:#0c479d;stop-opacity:1"
         offset="0.25" />
      <stop
         id="stop623"
         style="stop-color:#0c479d;stop-opacity:1"
         offset="0.375" />
      <stop
         id="stop625"
         style="stop-color:#0c479d;stop-opacity:1"
         offset="0.40362301" />
      <stop
         id="stop627"
         style="stop-color:#0c479d;stop-opacity:1"
         offset="0.40625" />
      <stop
         id="stop629"
         style="stop-color:#0e499e;stop-opacity:1"
         offset="0.41015601" />
      <stop
         id="stop631"
         style="stop-color:#104a9f;stop-opacity:1"
         offset="0.41406301" />
      <stop
         id="stop633"
         style="stop-color:#114b9f;stop-opacity:1"
         offset="0.41796899" />
      <stop
         id="stop635"
         style="stop-color:#124ca0;stop-opacity:1"
         offset="0.421875" />
      <stop
         id="stop637"
         style="stop-color:#144da1;stop-opacity:1"
         offset="0.42578101" />
      <stop
         id="stop639"
         style="stop-color:#154ea1;stop-opacity:1"
         offset="0.42968801" />
      <stop
         id="stop641"
         style="stop-color:#174fa2;stop-opacity:1"
         offset="0.43359399" />
      <stop
         id="stop643"
         style="stop-color:#1851a2;stop-opacity:1"
         offset="0.4375" />
      <stop
         id="stop645"
         style="stop-color:#1a52a3;stop-opacity:1"
         offset="0.44140601" />
      <stop
         id="stop647"
         style="stop-color:#1b53a4;stop-opacity:1"
         offset="0.44531301" />
      <stop
         id="stop649"
         style="stop-color:#1d54a4;stop-opacity:1"
         offset="0.44921899" />
      <stop
         id="stop651"
         style="stop-color:#1e55a5;stop-opacity:1"
         offset="0.453125" />
      <stop
         id="stop653"
         style="stop-color:#2056a5;stop-opacity:1"
         offset="0.45703101" />
      <stop
         id="stop655"
         style="stop-color:#2157a6;stop-opacity:1"
         offset="0.46093801" />
      <stop
         id="stop657"
         style="stop-color:#2358a6;stop-opacity:1"
         offset="0.46484399" />
      <stop
         id="stop659"
         style="stop-color:#245aa7;stop-opacity:1"
         offset="0.46875" />
      <stop
         id="stop661"
         style="stop-color:#265ba8;stop-opacity:1"
         offset="0.47265601" />
      <stop
         id="stop663"
         style="stop-color:#275ca8;stop-opacity:1"
         offset="0.47656301" />
      <stop
         id="stop665"
         style="stop-color:#295da9;stop-opacity:1"
         offset="0.48046899" />
      <stop
         id="stop667"
         style="stop-color:#2a5ea9;stop-opacity:1"
         offset="0.484375" />
      <stop
         id="stop669"
         style="stop-color:#2c5faa;stop-opacity:1"
         offset="0.48828101" />
      <stop
         id="stop671"
         style="stop-color:#2d60ab;stop-opacity:1"
         offset="0.49218801" />
      <stop
         id="stop673"
         style="stop-color:#2f61ab;stop-opacity:1"
         offset="0.49609399" />
      <stop
         id="stop675"
         style="stop-color:#3063ac;stop-opacity:1"
         offset="0.5" />
      <stop
         id="stop677"
         style="stop-color:#3264ac;stop-opacity:1"
         offset="0.50390601" />
      <stop
         id="stop679"
         style="stop-color:#3365ad;stop-opacity:1"
         offset="0.50781298" />
      <stop
         id="stop681"
         style="stop-color:#3566ae;stop-opacity:1"
         offset="0.51171899" />
      <stop
         id="stop683"
         style="stop-color:#3667ae;stop-opacity:1"
         offset="0.515625" />
      <stop
         id="stop685"
         style="stop-color:#3868af;stop-opacity:1"
         offset="0.51953101" />
      <stop
         id="stop687"
         style="stop-color:#3969af;stop-opacity:1"
         offset="0.52343798" />
      <stop
         id="stop689"
         style="stop-color:#3b6ab0;stop-opacity:1"
         offset="0.52734399" />
      <stop
         id="stop691"
         style="stop-color:#3c6bb1;stop-opacity:1"
         offset="0.53125" />
      <stop
         id="stop693"
         style="stop-color:#3e6db1;stop-opacity:1"
         offset="0.53515601" />
      <stop
         id="stop695"
         style="stop-color:#3f6eb2;stop-opacity:1"
         offset="0.53906298" />
      <stop
         id="stop697"
         style="stop-color:#406fb2;stop-opacity:1"
         offset="0.54296899" />
      <stop
         id="stop699"
         style="stop-color:#4270b3;stop-opacity:1"
         offset="0.546875" />
      <stop
         id="stop701"
         style="stop-color:#4371b4;stop-opacity:1"
         offset="0.55078101" />
      <stop
         id="stop703"
         style="stop-color:#4572b4;stop-opacity:1"
         offset="0.55468798" />
      <stop
         id="stop705"
         style="stop-color:#4673b5;stop-opacity:1"
         offset="0.55859399" />
      <stop
         id="stop707"
         style="stop-color:#4874b5;stop-opacity:1"
         offset="0.5625" />
      <stop
         id="stop709"
         style="stop-color:#4976b6;stop-opacity:1"
         offset="0.56640601" />
      <stop
         id="stop711"
         style="stop-color:#4b77b7;stop-opacity:1"
         offset="0.57031298" />
      <stop
         id="stop713"
         style="stop-color:#4c78b7;stop-opacity:1"
         offset="0.57421899" />
      <stop
         id="stop715"
         style="stop-color:#4e79b8;stop-opacity:1"
         offset="0.578125" />
      <stop
         id="stop717"
         style="stop-color:#4f7ab8;stop-opacity:1"
         offset="0.58203101" />
      <stop
         id="stop719"
         style="stop-color:#517bb9;stop-opacity:1"
         offset="0.58593798" />
      <stop
         id="stop721"
         style="stop-color:#527cba;stop-opacity:1"
         offset="0.58984399" />
      <stop
         id="stop723"
         style="stop-color:#547dba;stop-opacity:1"
         offset="0.59375" />
      <stop
         id="stop725"
         style="stop-color:#557fbb;stop-opacity:1"
         offset="0.59765601" />
      <stop
         id="stop727"
         style="stop-color:#5780bb;stop-opacity:1"
         offset="0.60156298" />
      <stop
         id="stop729"
         style="stop-color:#5881bc;stop-opacity:1"
         offset="0.60546899" />
      <stop
         id="stop731"
         style="stop-color:#5a82bd;stop-opacity:1"
         offset="0.609375" />
      <stop
         id="stop733"
         style="stop-color:#5b83bd;stop-opacity:1"
         offset="0.61328101" />
      <stop
         id="stop735"
         style="stop-color:#5d84be;stop-opacity:1"
         offset="0.61718798" />
      <stop
         id="stop737"
         style="stop-color:#5e85be;stop-opacity:1"
         offset="0.62109399" />
      <stop
         id="stop739"
         style="stop-color:#6086bf;stop-opacity:1"
         offset="0.625" />
      <stop
         id="stop741"
         style="stop-color:#6188c0;stop-opacity:1"
         offset="0.62890601" />
      <stop
         id="stop743"
         style="stop-color:#6389c0;stop-opacity:1"
         offset="0.63281298" />
      <stop
         id="stop745"
         style="stop-color:#648ac1;stop-opacity:1"
         offset="0.63671899" />
      <stop
         id="stop747"
         style="stop-color:#668bc1;stop-opacity:1"
         offset="0.640625" />
      <stop
         id="stop749"
         style="stop-color:#678cc2;stop-opacity:1"
         offset="0.64453101" />
      <stop
         id="stop751"
         style="stop-color:#698dc3;stop-opacity:1"
         offset="0.64843798" />
      <stop
         id="stop753"
         style="stop-color:#6a8ec3;stop-opacity:1"
         offset="0.65234399" />
      <stop
         id="stop755"
         style="stop-color:#6c8fc4;stop-opacity:1"
         offset="0.65625" />
      <stop
         id="stop757"
         style="stop-color:#6d91c4;stop-opacity:1"
         offset="0.66015601" />
      <stop
         id="stop759"
         style="stop-color:#6f92c5;stop-opacity:1"
         offset="0.66406298" />
      <stop
         id="stop761"
         style="stop-color:#7093c6;stop-opacity:1"
         offset="0.66796899" />
      <stop
         id="stop763"
         style="stop-color:#7194c6;stop-opacity:1"
         offset="0.671875" />
      <stop
         id="stop765"
         style="stop-color:#7395c7;stop-opacity:1"
         offset="0.67578101" />
      <stop
         id="stop767"
         style="stop-color:#7496c7;stop-opacity:1"
         offset="0.67968798" />
      <stop
         id="stop769"
         style="stop-color:#7697c8;stop-opacity:1"
         offset="0.68359399" />
      <stop
         id="stop771"
         style="stop-color:#7798c9;stop-opacity:1"
         offset="0.6875" />
      <stop
         id="stop773"
         style="stop-color:#799ac9;stop-opacity:1"
         offset="0.69140601" />
      <stop
         id="stop775"
         style="stop-color:#7a9bca;stop-opacity:1"
         offset="0.69531298" />
      <stop
         id="stop777"
         style="stop-color:#7c9cca;stop-opacity:1"
         offset="0.69921899" />
      <stop
         id="stop779"
         style="stop-color:#7d9dcb;stop-opacity:1"
         offset="0.703125" />
      <stop
         id="stop781"
         style="stop-color:#7f9ecc;stop-opacity:1"
         offset="0.70703101" />
      <stop
         id="stop783"
         style="stop-color:#809fcc;stop-opacity:1"
         offset="0.71093798" />
      <stop
         id="stop785"
         style="stop-color:#82a0cd;stop-opacity:1"
         offset="0.71484399" />
      <stop
         id="stop787"
         style="stop-color:#83a1cd;stop-opacity:1"
         offset="0.71875" />
      <stop
         id="stop789"
         style="stop-color:#85a3ce;stop-opacity:1"
         offset="0.72265601" />
      <stop
         id="stop791"
         style="stop-color:#86a4cf;stop-opacity:1"
         offset="0.72656298" />
      <stop
         id="stop793"
         style="stop-color:#88a5cf;stop-opacity:1"
         offset="0.73046899" />
      <stop
         id="stop795"
         style="stop-color:#89a6d0;stop-opacity:1"
         offset="0.734375" />
      <stop
         id="stop797"
         style="stop-color:#8ba7d0;stop-opacity:1"
         offset="0.73828101" />
      <stop
         id="stop799"
         style="stop-color:#8ca8d1;stop-opacity:1"
         offset="0.74218798" />
      <stop
         id="stop801"
         style="stop-color:#8ea9d2;stop-opacity:1"
         offset="0.74609399" />
      <stop
         id="stop803"
         style="stop-color:#8faad2;stop-opacity:1"
         offset="0.75" />
      <stop
         id="stop805"
         style="stop-color:#91acd3;stop-opacity:1"
         offset="0.75390601" />
      <stop
         id="stop807"
         style="stop-color:#92add3;stop-opacity:1"
         offset="0.75781202" />
      <stop
         id="stop809"
         style="stop-color:#94aed4;stop-opacity:1"
         offset="0.76171899" />
      <stop
         id="stop811"
         style="stop-color:#95afd5;stop-opacity:1"
         offset="0.765625" />
      <stop
         id="stop813"
         style="stop-color:#97b0d5;stop-opacity:1"
         offset="0.76953101" />
      <stop
         id="stop815"
         style="stop-color:#98b1d6;stop-opacity:1"
         offset="0.77343798" />
      <stop
         id="stop817"
         style="stop-color:#9ab2d6;stop-opacity:1"
         offset="0.77734399" />
      <stop
         id="stop819"
         style="stop-color:#9bb3d7;stop-opacity:1"
         offset="0.78125" />
      <stop
         id="stop821"
         style="stop-color:#9db5d8;stop-opacity:1"
         offset="0.78515601" />
      <stop
         id="stop823"
         style="stop-color:#9eb6d8;stop-opacity:1"
         offset="0.78906298" />
      <stop
         id="stop825"
         style="stop-color:#9fb7d9;stop-opacity:1"
         offset="0.79296899" />
      <stop
         id="stop827"
         style="stop-color:#a1b8d9;stop-opacity:1"
         offset="0.796875" />
      <stop
         id="stop829"
         style="stop-color:#a2b9da;stop-opacity:1"
         offset="0.80078101" />
      <stop
         id="stop831"
         style="stop-color:#a4badb;stop-opacity:1"
         offset="0.80468798" />
      <stop
         id="stop833"
         style="stop-color:#a5bbdb;stop-opacity:1"
         offset="0.80859399" />
      <stop
         id="stop835"
         style="stop-color:#a7bcdc;stop-opacity:1"
         offset="0.8125" />
      <stop
         id="stop837"
         style="stop-color:#a8bedc;stop-opacity:1"
         offset="0.81640601" />
      <stop
         id="stop839"
         style="stop-color:#aabfdd;stop-opacity:1"
         offset="0.82031298" />
      <stop
         id="stop841"
         style="stop-color:#abc0de;stop-opacity:1"
         offset="0.82421899" />
      <stop
         id="stop843"
         style="stop-color:#adc1de;stop-opacity:1"
         offset="0.828125" />
      <stop
         id="stop845"
         style="stop-color:#aec2df;stop-opacity:1"
         offset="0.83203101" />
      <stop
         id="stop847"
         style="stop-color:#b0c3df;stop-opacity:1"
         offset="0.83593798" />
      <stop
         id="stop849"
         style="stop-color:#b1c4e0;stop-opacity:1"
         offset="0.83984399" />
      <stop
         id="stop851"
         style="stop-color:#b3c5e1;stop-opacity:1"
         offset="0.84375" />
      <stop
         id="stop853"
         style="stop-color:#b4c7e1;stop-opacity:1"
         offset="0.84765601" />
      <stop
         id="stop855"
         style="stop-color:#b6c8e2;stop-opacity:1"
         offset="0.85156298" />
      <stop
         id="stop857"
         style="stop-color:#b7c9e2;stop-opacity:1"
         offset="0.85546899" />
      <stop
         id="stop859"
         style="stop-color:#b9cae3;stop-opacity:1"
         offset="0.859375" />
      <stop
         id="stop861"
         style="stop-color:#bacbe4;stop-opacity:1"
         offset="0.86328101" />
      <stop
         id="stop863"
         style="stop-color:#bccce4;stop-opacity:1"
         offset="0.86718702" />
      <stop
         id="stop865"
         style="stop-color:#bdcde5;stop-opacity:1"
         offset="0.87109399" />
      <stop
         id="stop867"
         style="stop-color:#bfcee5;stop-opacity:1"
         offset="0.875" />
      <stop
         id="stop869"
         style="stop-color:#c0d0e6;stop-opacity:1"
         offset="0.87890601" />
      <stop
         id="stop871"
         style="stop-color:#c2d1e7;stop-opacity:1"
         offset="0.88281298" />
      <stop
         id="stop873"
         style="stop-color:#c3d2e7;stop-opacity:1"
         offset="0.88671899" />
      <stop
         id="stop875"
         style="stop-color:#c5d3e8;stop-opacity:1"
         offset="0.890625" />
      <stop
         id="stop877"
         style="stop-color:#c6d4e8;stop-opacity:1"
         offset="0.89453101" />
      <stop
         id="stop879"
         style="stop-color:#c8d5e9;stop-opacity:1"
         offset="0.89843702" />
      <stop
         id="stop881"
         style="stop-color:#c9d6ea;stop-opacity:1"
         offset="0.90234399" />
      <stop
         id="stop883"
         style="stop-color:#cbd7ea;stop-opacity:1"
         offset="0.90625" />
      <stop
         id="stop885"
         style="stop-color:#ccd9eb;stop-opacity:1"
         offset="0.91015601" />
      <stop
         id="stop887"
         style="stop-color:#cedaeb;stop-opacity:1"
         offset="0.91406298" />
      <stop
         id="stop889"
         style="stop-color:#cfdbec;stop-opacity:1"
         offset="0.91796899" />
      <stop
         id="stop891"
         style="stop-color:#d0dced;stop-opacity:1"
         offset="0.921875" />
      <stop
         id="stop893"
         style="stop-color:#d2dded;stop-opacity:1"
         offset="0.92578101" />
      <stop
         id="stop895"
         style="stop-color:#d3deee;stop-opacity:1"
         offset="0.92968798" />
      <stop
         id="stop897"
         style="stop-color:#d5dfee;stop-opacity:1"
         offset="0.93359399" />
      <stop
         id="stop899"
         style="stop-color:#d6e0ef;stop-opacity:1"
         offset="0.9375" />
      <stop
         id="stop901"
         style="stop-color:#d8e2f0;stop-opacity:1"
         offset="0.94140601" />
      <stop
         id="stop903"
         style="stop-color:#d9e3f0;stop-opacity:1"
         offset="0.94531202" />
      <stop
         id="stop905"
         style="stop-color:#dbe4f1;stop-opacity:1"
         offset="0.94921899" />
      <stop
         id="stop907"
         style="stop-color:#dce5f1;stop-opacity:1"
         offset="0.953125" />
      <stop
         id="stop909"
         style="stop-color:#dee6f2;stop-opacity:1"
         offset="0.95703101" />
      <stop
         id="stop911"
         style="stop-color:#dfe7f3;stop-opacity:1"
         offset="0.96093798" />
      <stop
         id="stop913"
         style="stop-color:#e1e8f3;stop-opacity:1"
         offset="0.96484399" />
      <stop
         id="stop915"
         style="stop-color:#e2e9f4;stop-opacity:1"
         offset="0.96875" />
      <stop
         id="stop917"
         style="stop-color:#e4eaf4;stop-opacity:1"
         offset="0.97265601" />
      <stop
         id="stop919"
         style="stop-color:#e5ecf5;stop-opacity:1"
         offset="0.97656298" />
      <stop
         id="stop921"
         style="stop-color:#e7edf6;stop-opacity:1"
         offset="0.98046899" />
      <stop
         id="stop923"
         style="stop-color:#e8eef6;stop-opacity:1"
         offset="0.984375" />
      <stop
         id="stop925"
         style="stop-color:#eaeff7;stop-opacity:1"
         offset="0.98828101" />
      <stop
         id="stop927"
         style="stop-color:#ebf0f7;stop-opacity:1"
         offset="0.99218798" />
      <stop
         id="stop929"
         style="stop-color:#edf1f8;stop-opacity:1"
         offset="0.99609399" />
      <stop
         id="stop931"
         style="stop-color:#eef2f9;stop-opacity:1"
         offset="1" />
    </linearGradient>
  </defs>
  <metadata
     id="metadata7421">
    <rdf:RDF>
      <cc:Work
         rdf:about="">
        <dc:format>image/svg+xml</dc:format>
        <dc:type
           rdf:resource="http://purl.org/dc/dcmitype/StillImage" />
        <dc:title></dc:title>
      </cc:Work>
    </rdf:RDF>
  </metadata>
  <g
     transform="translate(-191.38285,-411.77153)"
     id="layer1">
    <g
       transform="matrix(1.7728819,0,0,1.7728819,54.876892,277.68264)"
       id="g7168">
      <path
         d="m 244.70313,126.04297 c -1.71094,14.28516 -36.69922,21.80859 -78.14844,16.80078 -41.44922,-5.00781 -73.66406,-20.64844 -71.95312,-34.9375 1.71093,-14.28906 36.69921,-21.80859 78.14843,-16.80078 41.44922,5.00781 73.66407,20.64844 71.95313,34.9375 z"
         id="path940"
         style="fill:#ffffff;fill-opacity:1;fill-rule:nonzero;stroke:#ffffff;stroke-width:2.88900995;stroke-linecap:butt;stroke-linejoin:miter;stroke-miterlimit:4;stroke-opacity:1" />
      <g
         clip-path="url(#clip1)"
         id="g942"
         style="clip-rule:nonzero">
        <path
           d="M 207.77734,213.83594 270.11719,105.37109 130.82812,25.3125 68.488281,133.77734 z"
           id="path944"
           style="fill:url(#linear0);fill-rule:nonzero;stroke:none" />
      </g>
      <path
         d="m 78.9375,75.902344 c 0,0 4.613281,-1.464844 10.320313,2.441406 0,0 2.820312,-3.125 6.152343,-0.902344 0.566407,0.375 1.164063,1.5 0.601563,2.8125 0,0 1.3125,0.03906 2.136719,0.453125 0,0 1.429687,-2.214843 3.269532,-0.152343 0,0 3.1875,-0.636719 3.90234,0.03906 0,0 1.39063,-0.976562 2.39844,0 0,0 0.64063,-0.1875 0.97656,-0.07422 0,0 0.0781,-1.425781 1.61328,-1.691406 1.54297,-0.261719 2.17969,1.539063 2.17969,1.539063 0,0 5.51563,-0.75 4.08985,3.003906 0,0 0.375,0.863281 0.22265,1.648437 -0.14844,0.789063 -0.82031,2.328125 -3.11328,2.554688 -2.28906,0.226562 -3.26562,0.113281 -4.01562,-1.503906 0,0 -0.67579,1.277343 -2.21485,1.578125 0,0 -0.33594,2.027343 -0.71094,2.664062 -0.375,0.636719 -0.71484,1.238281 -2.2539,0.828125 -1.53906,-0.417969 -1.875,-2.253906 -1.64844,-3.265625 0,0 -1.98828,0.261719 -3.605469,-0.75 0,0 -1.125,0.9375 -2.402343,0.1875 0,0 -1.835938,0.671875 -3.488282,-0.1875 0,0 -1.203125,1.273438 -3,0.109375 0,0 -1.65625,1.464844 -5.03125,1.015625 0,0 -2.25,1.835938 -3.566406,-0.976562 0,0 -3.488281,-2.101563 -2.964844,-4.203125 0.527344,-2.101563 3.003907,-2.289063 3.003907,-2.289063 0,0 0.222656,-1.089844 0.222656,-1.089844 0,0 -1.238281,-0.113281 -1.238281,-0.113281 0,0 -1.460938,1.355469 -2.8125,0.453125 -1.351563,-0.902344 -1.5,-3.191406 0.976562,-4.128906 z"
         id="path946"
         style="fill:#ffffff;fill-opacity:1;fill-rule:nonzero;stroke:none" />
      <path
         d="m 93.875,79.011719 c -0.851562,-0.136719 -1.433594,0.542969 -1.839844,1.019531 -0.09766,0.117188 -0.183593,0.261719 -0.226562,0.429688 0.09766,0.109375 0.386719,0.07813 0.582031,0.04687 0.675781,-0.113282 1.46875,-0.378907 1.71875,-1.019532 0.02734,-0.132812 0.02734,-0.292968 -0.07422,-0.382812 0,0 -0.160156,-0.09375 -0.160156,-0.09375 z m -2.871094,0.8125 c -0.01172,0.109375 0.0625,0.242187 0.148438,0.273437 C 91.378906,79.625 91.921875,79.03125 92.40625,78.75 c -0.578125,-0.05469 -1.347656,0.449219 -1.402344,1.074219 z m 2.695313,-1.453125 c 0.183594,0.01953 0.484375,0.07813 0.644531,0.167969 0.210938,0.128906 0.382813,0.347656 0.359375,0.628906 -0.03125,0.335937 -0.199219,0.726562 -0.347656,0.902344 -0.339844,0.457031 -0.785156,0.730468 -1.328125,0.976562 -0.425781,0.199219 -1.054688,0.242188 -1.550781,0.125 -0.07031,0.09375 -0.234375,0.347656 -0.457032,0.3125 -0.242187,-0.128906 -0.25,-0.4375 -0.222656,-0.707031 -0.238281,-0.257813 -0.421875,-0.605469 -0.3125,-0.992188 0.07422,-0.429687 0.3125,-0.746093 0.617188,-1.023437 0.425781,-0.355469 0.917968,-0.539063 1.453125,-0.65625 0.414062,-0.08203 0.894531,-0.06641 1.144531,0.265625 z"
         id="path948"
         style="fill:#0a459c;fill-opacity:1;fill-rule:nonzero;stroke:none" />
      <path
         d="m 111.03906,80.875 c 0.10938,0.328125 0.082,0.789063 -0.15625,1.035156 -0.24218,0.238282 -0.57812,0.332032 -0.92578,0.285157 -0.0273,-0.01172 -0.0586,-0.03906 -0.0781,-0.08203 -0.0547,-0.09375 0.0586,-0.152343 0.10937,-0.222656 0.23047,-0.308594 0.36328,-0.722656 0.33985,-1.132812 -0.0117,-0.144532 0,-0.332032 0.125,-0.375 0.29687,-0.01953 0.49609,0.230468 0.58593,0.492187 z"
         id="path950"
         style="fill:#0a459c;fill-opacity:1;fill-rule:nonzero;stroke:none" />
      <path
         d="m 100.34375,81.753906 c 0.35938,0.578125 0.63672,1.164063 0.73828,1.871094 0,0 0,0 0,0 0.0273,0.613281 0.10547,1.199219 -0.18359,1.734375 -0.13672,0.253906 -0.41797,0.628906 -0.82031,0.476563 -0.386724,-0.214844 -0.613286,-0.671875 -0.843755,-1.046875 -0.230469,-0.375 -0.472656,-0.832032 -0.691406,-1.242188 -0.02344,-0.04297 -0.08594,-0.101562 -0.121094,-0.0625 -0.01563,0.04687 -0.02734,0.117188 -0.02734,0.191406 -0.03516,0.648438 -0.07422,1.238282 -0.101562,1.867188 -0.01563,0.1875 -0.05859,0.359375 -0.160156,0.480469 -0.07813,0.05859 -0.253907,0.04687 -0.363282,0.0039 -0.355468,-0.175781 -0.332031,-0.621094 -0.328125,-1.003906 0.02734,-0.292969 0.04297,-0.617188 0.09375,-0.917969 0.08984,-0.582031 0.195313,-1.199219 0.417969,-1.726563 0.05859,-0.117187 0.121094,-0.191406 0.246094,-0.238281 0.230469,-0.05078 0.425781,0.269531 0.507812,0.375 0.5,0.636719 0.917969,1.324219 1.394525,2 0.0625,0.08594 0.0898,0.175781 0.16016,0.140625 0.0781,-0.05078 0.0156,-0.453125 -0.0273,-0.703125 -0.0625,-0.378906 -0.14063,-0.734375 -0.242188,-1.09375 -0.128907,-0.425781 -0.269532,-0.828125 -0.316407,-1.285156 -0.01953,-0.101563 -0.03125,-0.210938 -0.01172,-0.3125 0.02734,-0.09766 0.148437,-0.07813 0.222656,-0.05078 0.218749,0.113281 0.347659,0.371093 0.457029,0.542968 z"
         id="path952"
         style="fill:#0a459c;fill-opacity:1;fill-rule:nonzero;stroke:none" />
      <path
         d="m 115.13672,82.113281 c 0.0391,0.02734 0.10547,0.08594 0.12891,0.125 0.0312,0.222657 -0.12891,0.390625 -0.26172,0.519532 -0.20703,0.183593 -0.64063,-0.04297 -0.9375,-0.05859 -0.60547,-0.03125 -1.12891,-0.08984 -1.65625,0 -0.33985,0.06641 -0.71094,0.132812 -0.9961,0.34375 -0.0742,0.06641 -0.16015,0.160156 -0.0937,0.21875 0.0586,0.05078 0.25391,0.07813 0.36328,0.07422 0.40235,-0.01953 0.71485,0.01953 1.14844,0.01563 0.79688,0.01172 1.42969,0.0625 2.00781,0.402343 0.32032,0.222657 0.45313,0.605469 0.39454,1.015625 -0.15625,0.605469 -0.73047,0.949219 -1.29297,1.152344 -0.23828,0.08984 -1.3711,0.289063 -2.02735,0.136719 -0.26562,-0.06641 -0.84375,-0.269531 -0.82422,-0.703125 0.0391,-0.410156 0.32422,-0.71875 0.67188,-0.832031 0.55078,-0.183594 1.15625,-0.210938 1.75781,-0.261719 0.14063,-0.01172 0.3711,0.06641 0.45703,0.199219 0.0781,0.140625 -0.0898,0.414062 -0.26172,0.433593 -0.53515,0.08203 -1.17187,0.05078 -1.74218,-0.0078 -0.17578,-0.01172 -0.26172,0.08594 -0.28907,0.175781 -0.0312,0.15625 0.16407,0.140625 0.22657,0.144531 0.52734,0.04297 1.09765,0.0039 1.42187,-0.04297 0.27344,-0.05469 0.47656,-0.109375 0.76563,-0.207032 0.24218,-0.09766 0.625,-0.308593 0.62109,-0.402343 -0.004,-0.324219 -0.48828,-0.324219 -0.64844,-0.355469 -0.84375,-0.07422 -1.67187,0.04687 -2.51172,-0.06641 -0.34375,-0.05469 -0.75,-0.175782 -0.86718,-0.472657 -0.14453,-0.554687 0.22656,-0.9375 0.63281,-1.25 0.89453,-0.597656 2.05859,-0.609375 3.1875,-0.496093 0.24219,0.04687 0.41016,0.09375 0.625,0.199218 z"
         id="path954"
         style="fill:#0a459c;fill-opacity:1;fill-rule:nonzero;stroke:none" />
      <path
         d="m 104.95313,82.359375 c 0.0547,0.08203 0.16015,0.226563 0.10937,0.296875 -0.26562,0.292969 -0.70703,0.15625 -1.05078,0.195313 0,0 -0.88672,0.02734 -0.88672,0.02734 -0.0937,0.02734 -0.10547,0.121094 -0.14062,0.195313 -0.0469,0.144531 -0.10938,0.304687 -0.0859,0.457031 0,0 0.0547,0.03125 0.0547,0.03125 0.42578,0.02344 0.8789,-0.0625 1.27343,0.05469 0.0664,0.03125 0.0859,0.292968 0.0742,0.453125 -0.0391,0.152343 -0.48047,0.152343 -0.71484,0.160156 -0.3086,0.01172 -0.60156,0.0039 -0.89453,0.0078 -0.0625,0.105469 -0.14063,0.257813 -0.20703,0.386719 -0.0469,0.132813 -0.20313,0.339844 -0.0742,0.527344 0.082,0.121094 1.16406,-0.320313 1.82812,-0.269531 0.0859,0.0039 0.25781,0.316406 0.2461,0.523437 0,0 -0.0312,0.08594 -0.0937,0.136719 -0.16016,0.121094 -1.12891,0.730469 -1.80469,0.804687 -0.38281,0.04297 -0.66016,-0.0039 -0.96875,-0.394531 -0.23438,-0.289062 -0.30469,-0.761719 -0.17578,-1.128906 0.0977,-0.277344 0.25,-0.53125 0.34765,-0.828125 -0.0195,-0.04297 -0.0312,-0.09766 -0.0469,-0.152344 0.0117,-0.06641 -0.0234,-0.15625 0.0469,-0.195312 0.10547,-0.05078 0.23828,-0.09375 0.23828,-0.09375 0.125,-0.121094 0.16016,-0.335938 0.22657,-0.503907 0.0234,-0.05469 0.0664,-0.152343 0.0781,-0.214843 -0.16797,-0.06641 -0.40625,-0.06641 -0.59375,-0.160157 -0.14844,-0.07031 -0.32031,-0.238281 -0.24609,-0.421875 0.23047,-0.183593 1.05859,-0.207031 1.64844,-0.292968 0.39062,-0.05469 0.78515,-0.117188 1.19921,-0.105469 0.10938,0.01563 0.19141,0.03125 0.28907,0.132812 0,0 0.32422,0.371094 0.32422,0.371094 z"
         id="path956"
         style="fill:#0a459c;fill-opacity:1;fill-rule:nonzero;stroke:none" />
      <path
         d="m 96.929688,81.972656 c 0.132812,0.03516 0.214843,0.08594 0.347656,0.152344 0.04297,0.132813 -0.0625,0.277344 -0.136719,0.382813 -0.1875,0.113281 -0.429687,0.128906 -0.636719,0.144531 -0.769531,0.05859 -1.558593,0.121094 -2.316406,0.238281 -0.203125,0.05078 -0.414062,0.105469 -0.601562,0.207031 -0.01563,0.03125 0.03516,0.06641 0.05859,0.08203 0.871094,0.21875 1.847657,0.15625 2.722657,0.355468 0.480468,0.144532 0.742187,0.613282 0.8125,1.070313 0.0078,0.320312 -0.07422,0.664062 -0.265625,0.882812 -0.691407,0.660157 -1.792969,0.679688 -2.691407,0.421875 -0.445312,-0.132812 -0.992187,-0.449218 -1.101562,-0.984375 -0.02734,-0.144531 -0.0078,-0.265625 0.07813,-0.367187 0.117187,-0.132813 0.269531,-0.257813 0.441406,-0.347656 0.660156,-0.289063 1.429688,-0.03125 2.074219,0.121093 0.15625,0.03125 0.359375,0.0625 0.34375,0.195313 -0.04687,0.167969 -0.246094,0.214844 -0.386719,0.285156 -0.609375,0.285156 -1.292969,-0.285156 -1.691406,-0.285156 -0.179688,0.01172 -0.367188,0.04297 -0.453125,0.222656 -0.03516,0.07031 -0.01563,0.148438 0.03125,0.207031 0.222656,0.230469 0.589844,0.242188 0.84375,0.265625 0.519531,0.03125 1,-0.121093 1.457031,-0.261718 0.261719,-0.07813 0.585938,-0.199219 0.679688,-0.480469 0.05859,-0.214844 -0.363282,-0.398438 -0.703125,-0.488281 -0.808594,-0.160157 -1.675782,0.07031 -2.464844,-0.203125 -0.1875,-0.07031 -0.484375,-0.195313 -0.496094,-0.453125 0.03516,-0.367188 0.136719,-0.761719 0.460938,-0.953125 0.652343,-0.382813 1.40625,-0.519532 2.167968,-0.550782 0.480469,-0.01953 0.941407,0.0078 1.425782,0.140625 z"
         id="path958"
         style="fill:#0a459c;fill-opacity:1;fill-rule:nonzero;stroke:none" />
      <path
         d="m 92.175781,82.753906 c 0,0.132813 0.04687,0.253907 0.02734,0.375 0.02734,0.925782 0.132813,1.902344 0.07031,2.816407 -0.01953,0.125 -0.136719,0.183593 -0.238282,0.226562 -0.195312,0.03516 -0.386718,-0.01563 -0.554687,-0.07813 -0.195313,-0.265625 -0.183594,-0.589844 -0.207031,-0.929687 -0.04297,-1.035157 0.07813,-2.023438 0.273437,-3.007813 0.02734,-0.09766 0.03125,-0.238281 0.160156,-0.257812 0.335938,0.144531 0.484375,0.472656 0.46875,0.855468 z"
         id="path960"
         style="fill:#0a459c;fill-opacity:1;fill-rule:nonzero;stroke:none" />
      <path
         d="m 108.52344,82.9375 c -0.0234,-0.03906 -0.0977,-0.0625 -0.125,-0.01172 -0.42578,0.527344 -0.82813,1.023438 -1.25781,1.628907 -0.14454,0.199218 -0.26563,0.351562 -0.4375,0.617187 0,0 -0.0391,0.05859 0.34375,0.01172 0.38281,-0.04687 1.08984,-0.523438 1.39453,-0.992188 0.14062,-0.21875 0.21875,-0.59375 0.21093,-0.769531 -0.0117,-0.175781 -0.0547,-0.347656 -0.1289,-0.484375 z m -1.83203,-1.148437 c 0.0195,0.148437 0,0.273437 -0.0547,0.375 -0.0781,0.191406 -0.15625,0.324218 -0.23438,0.480468 -0.20703,0.417969 -0.42578,0.835938 -0.58984,1.253907 -0.0781,0.234375 -0.19531,0.558593 -0.0586,0.84375 0.0156,-0.03516 0.15625,-0.226563 0.17578,-0.265625 0.44922,-0.703125 0.82812,-1.136719 1.4375,-1.742188 0.30859,-0.308594 0.77344,-0.824219 1.29297,-0.535156 0.23437,0.203125 0.34765,0.417969 0.46093,0.6875 0.23047,0.53125 0.11719,1.226562 -0.16406,1.710937 -0.29687,0.519532 -0.67578,0.835938 -1.13672,1.199219 -0.40234,0.273438 -0.86718,0.421875 -1.38281,0.398438 -0.0703,0.117187 -0.20703,0.367187 -0.28516,0.554687 -0.15234,0.375 -0.50781,1.59375 -0.58984,2.011719 0,0 -0.14062,0.867187 -0.14062,0.867187 -0.004,0.04297 -0.0586,0.101563 -0.125,0.117188 -0.30079,0.02734 -0.5,-0.214844 -0.60157,-0.351563 -0.17968,-0.335937 -0.28515,-0.777343 -0.21484,-1.1875 0.18359,-0.917968 0.49219,-1.824218 0.87109,-2.675781 -0.1289,-0.214844 -0.23047,-0.542969 -0.25781,-0.824219 -0.0508,-0.8125 0.33984,-1.667968 0.78516,-2.273437 0,0 0,0 0,0 0.20312,-0.25 0.40234,-0.5625 0.70703,-0.726563 0.043,-0.01953 0.0937,0.03906 0.10547,0.08203 z"
         id="path962"
         style="fill:#0a459c;fill-opacity:1;fill-rule:nonzero;stroke:none" />
      <path
         d="m 83.292969,83.003906 c -0.246094,-0.04687 -0.519531,0.02734 -0.761719,0.01172 -0.652344,0.140625 -1.292969,0.113281 -1.832031,0.53125 -0.08203,0.08594 -0.04297,0.207031 0.0039,0.277344 0.5625,0.65625 1.304688,1.160156 2.101563,1.445312 0.152343,0.05469 0.320312,0.105469 0.40625,0.113282 -0.0039,-0.6875 0.04297,-1.34375 0.08203,-2.089844 0.01172,-0.117188 0,-0.289063 0,-0.289063 z m 2.328125,-4.898437 c 1.546875,0.601562 2.996094,1.511719 4.113281,2.726562 0.460938,0.492188 0.824219,1.074219 1.097656,1.714844 0.113282,0.386719 0.222657,0.761719 0.160157,1.234375 -0.152344,0.929688 -0.714844,1.652344 -1.53125,2.164063 -0.640625,0.421875 -1.332032,0.636718 -2.144532,0.746093 -0.914062,0.117188 -2.660156,-0.01172 -2.882812,-0.101562 -0.0039,0.242187 -0.105469,0.484375 -0.25,0.578125 -0.144531,0.06641 -0.578125,0.128906 -0.753906,-0.144531 -0.144532,-0.261719 -0.207032,-0.582032 -0.238282,-0.871094 -1.105468,-0.507813 -2.089843,-1.332031 -2.800781,-2.277344 -0.109375,-0.199219 -0.117187,-0.503906 0.04687,-0.6875 0.691406,-0.730469 1.710938,-0.929687 2.683594,-1.089844 0.128906,-0.02344 0.207031,-0.01563 0.207031,-0.01563 0.0078,-0.171875 0.0078,-0.398437 0.04687,-0.535156 0.0039,-0.484375 0.109375,-0.964844 0.179688,-1.433594 0.01953,-0.125 0.02344,-0.253906 0.136718,-0.304687 0.164063,-0.05469 0.300782,0.175781 0.382813,0.339844 0.09766,0.25 0.175781,0.820312 0.175781,0.820312 0.04297,0.347656 0.07422,0.683594 0.101563,0.976563 0,0 0.05859,0.01172 0.05859,0.01172 0.484375,-0.01953 0.949219,0 1.445313,0.07031 0.683594,0.117187 1.28125,0.183594 1.816406,0.582031 0.289063,0.25 0.558594,0.589844 0.453125,1.007813 -0.132812,0.332031 -0.355469,0.59375 -0.652344,0.695312 -0.28125,0.07031 -0.585937,-0.03516 -0.769531,-0.144531 0,0 0,-0.05859 0,-0.05859 0.285156,-0.128906 0.539063,-0.316406 0.585938,-0.636719 -0.0039,-0.132812 -0.410157,-0.1875 -0.582032,-0.226562 -0.554687,-0.132813 -1.125,-0.234375 -1.714843,-0.292969 -0.269532,-0.02734 -0.414063,-0.01563 -0.613282,-0.02344 0.02344,0.371093 0.05469,0.863281 0.03516,1.179687 -0.0039,0.628906 0.0078,1.070313 -0.01172,1.601563 0,0 0.06641,0.02734 0.06641,0.02734 0.882813,0.1875 1.308594,0.136719 2.007813,0.132813 0.917968,-0.08984 1.785156,-0.355469 2.507812,-0.863281 0.5,-0.34375 0.808594,-0.808594 0.84375,-1.410157 0.06641,-0.5 -0.242187,-0.984375 -0.402344,-1.441406 -0.503906,-0.75 -1.15625,-1.421875 -1.910156,-1.976562 -1.554687,-1.105469 -3.335937,-1.703125 -5.226562,-2.039063 -0.820313,-0.101562 -1.613282,-0.199219 -2.496094,-0.125 -0.191406,0.01563 -0.421875,0.03516 -0.605469,0.1875 0.03516,0.09766 0.183594,0.140625 0.277344,0.199219 0.06641,0.04687 0.109375,0.0625 0.109375,0.132812 -0.08594,0.105469 -0.246094,0.132813 -0.382813,0.140625 -0.214843,0.02344 -0.777343,0.02734 -0.714843,-0.289062 0.07031,-0.296875 0.253906,-0.621094 0.445312,-0.761719 1.566406,-0.664062 3.558594,-0.449219 5.183594,-0.03125 0.507812,0.160156 1.027344,0.308594 1.515625,0.511719 z"
         id="path964"
         style="fill:#0a459c;fill-opacity:1;fill-rule:nonzero;stroke:none" />
      <path
         d="m 207.4336,101.85938 c 0,0 -11.75391,0.9375 -22.82032,-3.6836 -5.9414,-2.48047 -9.58593,-5.01953 -9.25781,-7.58594 0.33203,-2.57031 7.0625,-3.42578 8.90235,-3.29687 0,0 4.23437,-3.71094 12.70312,-3.27344 0,0 -0.10156,-0.94531 0.72656,-2.92578 0,0 -0.59375,-0.51953 -0.28906,-1.35937 0.30469,-0.83594 1.08594,-0.96485 1.71094,-0.65235 0.625,0.3125 0.91797,0.80469 0.71875,1.44922 -0.21875,0.70313 -1.08985,0.85938 -1.58594,0.77734 0,0 -0.88281,2.05469 -0.50781,2.87891 0,0 6.59765,1.02344 9.33594,2.39844 0,0 2.03125,-1.83203 3.125,-2.07813 1.09765,-0.24218 4.72656,0.0469 4.62109,1.21485 -0.10156,1.16406 -2.25781,0.39453 -2.25781,0.39453 0,0 -1.37891,3.03125 -1.37891,3.03125 0,0 2.37109,2.32812 3.66406,4.26953 0,0 2.85938,-3.29688 4.81641,-3.66016 1.96094,-0.35937 5.11328,0.0234 5.04297,1.23828 -0.0703,1.21485 -2.48828,0.74219 -2.48828,0.74219 0,0 -2.56641,5.67188 -2.56641,5.67188 0,0 2.03906,5.08984 -3.57422,6.33984 -4.00781,0.89453 -8.64062,-1.89062 -8.64062,-1.89062 z"
         id="path966"
         style="fill:#ffffff;fill-opacity:1;fill-rule:nonzero;stroke:#ffffff;stroke-width:2.88579988;stroke-linecap:butt;stroke-linejoin:miter;stroke-miterlimit:4;stroke-opacity:1" />
      <path
         d="m 207.43359,101.85938 c 0,0 -11.7539,0.9375 -22.82031,-3.683599 -5.94141,-2.480468 -9.58594,-5.019531 -9.25781,-7.585937 0.33203,-2.570313 7.0625,-3.425781 8.90234,-3.296875 0,0 4.23438,-3.710938 12.70313,-3.273438 0,0 -0.10157,-0.945312 0.72656,-2.925781 0,0 -0.59375,-0.519531 -0.28906,-1.359375 0.30468,-0.835937 1.08593,-0.964844 1.71093,-0.652344 0.625,0.3125 0.91797,0.804688 0.71875,1.449219 -0.21875,0.703125 -1.08984,0.859375 -1.58593,0.777344 0,0 -0.88282,2.054687 -0.50782,2.878906 0,0 6.59766,1.023438 9.33594,2.398438 0,0 2.03125,-1.832032 3.125,-2.078125 1.09766,-0.242188 4.72656,0.04687 4.6211,1.214843 -0.10157,1.164063 -2.25782,0.394532 -2.25782,0.394532 0,0 -1.3789,3.03125 -1.3789,3.03125 0,0 2.37109,2.328125 3.66406,4.269531 0,0 2.85937,-3.296875 4.81641,-3.660156 1.96093,-0.359375 5.11328,0.02344 5.04296,1.238281 -0.0703,1.214844 -2.48828,0.742187 -2.48828,0.742187 0,0 -2.5664,5.671875 -2.5664,5.671875 0,0 2.03906,5.089844 -3.57422,6.339844 -4.00781,0.89453 -8.64063,-1.89062 -8.64063,-1.89062 z"
         id="path968"
         style="fill:#eb171e;fill-opacity:1;fill-rule:nonzero;stroke:none" />
      <path
         d="m 183.73047,87.507813 c 0,0 3.03125,-2.675782 7.11719,-3.0625 0,0 13.21484,3.453125 17.89453,8.070312 0,0 -3.64844,0.449219 -5.46485,2.277344 0,0 -15.41797,-2.125 -19.78515,-5.003906 0,0 -1.13282,-1.320313 0.23828,-2.28125 z"
         id="path970"
         style="fill:#82cce1;fill-opacity:1;fill-rule:nonzero;stroke:none" />
      <path
         d="m 193.74219,93.875 c 0,0 5.66406,-7.53125 5.66406,-7.53125 0,0 -0.58984,-0.207031 -0.58984,-0.207031 0,0 -6.09766,7.492187 -6.09766,7.492187 0,0 1.02344,0.246094 1.02344,0.246094 z"
         id="path972"
         style="fill:#eb171e;fill-opacity:1;fill-rule:nonzero;stroke:none" />
      <path
         d="m 199.40625,95.691406 c 0,0 5.66406,-7.53125 5.66406,-7.53125 0,0 -0.58984,-0.207031 -0.58984,-0.207031 0,0 -6.09766,7.492188 -6.09766,7.492188 0,0 1.02344,0.246093 1.02344,0.246093 z"
         id="path974"
         style="fill:#eb171e;fill-opacity:1;fill-rule:nonzero;stroke:none" />
      <path
         d="m 227.21094,119.25391 c -0.0195,0 -0.30078,-0.008 -0.4375,-0.0156 0,0.0937 -0.008,0.5 -0.008,0.60547 0,0.11719 0.0156,0.8125 0.0195,0.83594 0.004,0.0312 -0.004,0.0391 -0.0352,0.0352 -0.0156,0 -0.10547,-0.004 -0.13672,-0.004 -0.0273,0 -0.11719,0.004 -0.13672,0.004 -0.0234,0 -0.0312,-0.004 -0.0312,-0.043 0.004,-0.0234 0.0273,-0.63282 0.0273,-0.82813 0,-0.16016 -0.008,-0.375 -0.0156,-0.60547 -0.12109,0.008 -0.44531,0.0234 -0.46484,0.0234 -0.0117,-0.004 -0.0195,-0.008 -0.0117,-0.0312 0.004,-0.008 0.0156,-0.0625 0.0234,-0.11328 0.0117,-0.0508 0.0117,-0.10547 0.0195,-0.11719 0,-0.0156 0.004,-0.0195 0.0312,-0.0156 0.0273,0.004 0.42578,0.0273 0.57422,0.0273 0.15234,0 0.53515,-0.0273 0.5625,-0.0312 0.0312,0 0.0312,0 0.0391,0.0234 0,0.0156 -0.004,0.0781 -0.004,0.11718 0,0.0273 0.008,0.0781 0.008,0.10157 0,0.0234 0,0.0312 -0.0234,0.0312 z"
         id="path976"
         style="fill:#0a459c;fill-opacity:1;fill-rule:nonzero;stroke:none" />
      <path
         d="m 229.08203,120.71484 c -0.0156,0 -0.10156,-0.004 -0.13281,-0.004 -0.0273,0 -0.1211,0.004 -0.13672,0.004 -0.0273,0 -0.0312,-0.004 -0.0312,-0.0391 0.004,-0.0312 0.0195,-0.90625 0.0195,-0.9375 0,-0.0391 -0.0195,-0.0195 -0.0273,-0.0117 -0.0977,0.24219 -0.26953,0.64453 -0.40235,1 -0.008,0.0117 -0.0937,0.0156 -0.10937,0.0117 -0.0156,0 -0.10547,-0.008 -0.10938,-0.0195 -0.14453,-0.33594 -0.34375,-0.79297 -0.43359,-1.00391 -0.008,-0.0234 -0.0273,-0.0273 -0.0273,0.008 0,0.16015 0.0117,0.92187 0.0117,0.95312 0,0.0352 -0.004,0.0391 -0.0312,0.0391 -0.0117,0 -0.0977,-0.004 -0.1289,-0.004 -0.0234,0 -0.11328,0.004 -0.12891,0.004 -0.0273,0 -0.0352,0 -0.0312,-0.0352 0.004,-0.0234 0.0234,-0.60938 0.0234,-0.80469 0,-0.19531 -0.0195,-0.80469 -0.0234,-0.83203 -0.004,-0.0391 0,-0.043 0.0273,-0.0469 0.0273,0 0.10156,-0.004 0.12109,-0.008 0.0352,0 0.10937,-0.008 0.12109,-0.0117 0.0195,-0.004 0.0234,-0.004 0.0469,0.0469 0.18359,0.42187 0.48437,1.10547 0.51172,1.17187 0.0234,0.0586 0.0469,0.1211 0.0586,0.1211 0.0117,0 0.043,-0.0664 0.0547,-0.0977 0.0469,-0.10937 0.39453,-0.98437 0.46484,-1.1875 0.008,-0.0273 0.0195,-0.0469 0.0391,-0.0469 0.0117,0.004 0.10547,0.008 0.13282,0.008 0.0234,0 0.0937,0.004 0.11718,0.004 0.0312,-0.004 0.0352,0.004 0.0312,0.043 0,0.0273 -0.0156,0.64063 -0.0156,0.83594 0,0.19531 0.0156,0.77344 0.0195,0.79688 0,0.0391 -0.008,0.043 -0.0312,0.043 z"
         id="path978"
         style="fill:#0a459c;fill-opacity:1;fill-rule:nonzero;stroke:none" />
      <path
         d="m 196.27344,127.65625 c -0.0117,-0.16406 -0.86328,0.33984 -1.49219,0.37891 -2.44531,0.14453 -4.23047,-0.0352 -4.23047,-0.0352 0,0 -1.30078,-0.0625 -1.83593,-0.89062 0,0 -1.87891,3.13281 -6.44532,3.0039 -4.57031,-0.125 -7.16796,-2.0039 -9.26171,-5.44531 0,0 -2.41016,1.56641 -5.22657,1.41016 -2.8164,-0.15625 -5.13281,-2.03516 -5.13281,-2.03516 0,0 0.125,5.85156 -8.07031,7.48047 0,0 -0.625,0.125 -1.72266,0 -1.09375,-0.125 -1.5,-0.97266 -1.5,-0.97266 0,0 -2.4414,-4.09765 -2.4414,-4.09765 0,0 -0.87891,-1.94141 1.25,-2.94141 0,0 1.4375,-0.4375 1.4375,-0.4375 0,0 -0.625,-0.78125 -0.625,-0.78125 0,0 -0.625,0.71875 -2,0.71875 -1.37891,0 -3.72266,0 -3.72266,0 0,0 -1.34766,-0.21875 -1.69141,-0.875 0,0 -0.59375,0.84375 -1.6914,0.84375 -1.09375,0 -4.19141,0 -4.19141,0 0,0 -0.53516,0.0312 -1.125,-0.28125 0,0 -0.0312,2.4375 -2.12891,2.4375 -2.09765,0 -4.6914,0 -4.6914,0 0,0 -2.50781,-0.12109 -2.50781,-2.53125 0,-2.41016 0,-6.16406 0,-6.16406 0,0 -3.87891,3.55468 -8.88282,2.01172 -5.00781,-1.54297 -8.67187,-5.82032 -6.63281,-12.14063 2,-6.21484 9.05078,-6.00781 9.38672,-5.92578 0.33203,0.082 4.25391,0.33594 6.33984,3.88281 0,0 1.04297,-1.7539 2.33594,-2.1289 0,0 -0.46094,-1.04297 -0.375,-2.71094 0,0 -4.12891,0 -4.12891,0 0,0 -2.5664,-0.16797 -2.67187,-3.27344 -0.10547,-3.10937 0.125,-8.24219 0,-13.83203 0,0 0.14844,-2.44141 2.58203,-2.62891 2.42578,-0.18359 3.89453,-0.0547 3.89453,-0.0547 0,0 2.34766,-0.0586 2.41016,2.16015 0,0 0.0312,2.75391 0.0312,3.03516 0,0 2.8164,-1.34375 5.66406,0.28125 0,0 0.9375,-1.65625 2.91016,-1.375 1.96875,0.28125 3.47265,0.8125 3.47265,0.8125 0,0 2.03516,0.5 2.09766,2.6914 0,0 0.96875,-2.0039 2.59375,-1.97265 1.62891,0.0312 3.88281,0.6289 3.88281,0.6289 0,0 1.34375,0.40625 1.5625,1.53125 0,0 0.0625,-2.9414 0.0625,-2.9414 0,0 -0.125,-1.78516 1.69141,-2.00391 1.8125,-0.21875 5.16406,-0.0937 5.16406,-0.0937 0,0 2.28125,-0.0312 2.25,2.34766 0,0 0.0312,1.3125 0.0312,1.3125 0,0 3.25391,-1.5 6.54297,0.0664 2.95703,1.41016 4.75,4.75 2.78516,8.94922 -0.21485,0.45703 -0.47657,0.92969 -0.78516,1.40625 0,0 0.28125,2.97266 -2.66016,3.62891 -2.9414,0.65625 -6.03906,-1.21875 -6.03906,-1.21875 0,0 0.31641,3.81641 -6.47656,2.72266 0,0 -1.67188,2.58203 -5.22266,2.5039 -4.19531,-0.0937 -5.23047,-2.28515 -5.23047,-2.28515 0,0 -3.53515,1.8125 -7.44531,0 0,0 -0.4375,1.40625 -2.1875,1.78125 0,0 0.87109,1.09765 0.5625,3.72656 0,0 4.31641,-0.69141 4.31641,-0.69141 0,0 1.4375,-0.3125 1.9414,0.44141 0,0 2.45313,-1.02344 4.78516,-0.28516 1.97266,0.62891 3.94531,1.97266 3.84766,6.41406 0,0 5.28906,-3.97265 8.64062,-1.8125 0,0 0.125,-1.6289 0.125,-1.6289 0,0 0.0312,-1.0625 1.375,-0.90625 0,0 0.0937,-3.50391 0.0937,-3.50391 0,0 -0.125,-1.97265 2.53125,-1.78515 2.66406,0.1875 5.13672,0.72265 5.13672,0.72265 0,0 1.625,0.0937 1.625,2.375 0,0 -0.0937,1.59766 -0.0937,1.59766 0,0 1.91016,0.0312 1.91016,0.0312 0,0 1.625,0.0937 1.625,2.1914 0,0 -0.0273,4.12891 -0.0273,4.12891 0,0 2.40625,-3.00391 6.53516,-2.97266 3.16015,0.0234 5.42187,1.53125 6.74609,3.21875 0,0 -0.1875,-1.82812 -0.1875,-1.82812 0,0 0,-1.24219 0.51172,-1.71484 0,0 -1.53125,-3.2461 1.16797,-5.54688 2.17187,-1.85156 5.43359,-1.53125 7.11328,0.0742 1.67969,1.60547 1.85938,3.64844 1.02344,5.61719 0,0 0.54687,0.54687 0.4375,1.64062 -0.0977,0.94141 -0.10547,1.5586 -0.10547,1.5586 0,0 3.74219,-0.55079 3.74219,-0.55079 0,0 1.5039,-0.42968 2.65234,0.36719 0,0 3.35938,-1.47265 6.33594,0.36719 0,0 -0.20703,-3.375 3.21875,-5.64453 2.36328,-1.5625 4.75781,-1.8711 4.75781,-1.8711 0,0 2.45313,-0.70312 3.67969,1.19532 0,0 1.92969,3.4375 1.92969,3.4375 0,0 0.64453,1.47265 0,2.45312 -0.64063,0.98047 -0.82813,1.32031 -1.99219,1.5625 0,0 1.99219,1.9336 1.96484,4.41797 -0.0312,2.48828 -0.85937,4.78516 -3.2539,6.19922 0,0 -2.69922,1.77734 -4.66407,1.89844 0,0 -1.96093,0.58203 -3.0664,-0.39844 0,0 -0.0586,1.28906 -1.01172,1.99609 -0.94922,0.70313 -2.05469,0.70313 -2.05469,0.70313 0,0 -3.1875,0 -3.1875,0 0,0 -1.60547,-0.082 -2.13672,-0.81641 0,0 -0.82031,0.85938 -2.17187,0.77735 0,0 -3.35157,-0.043 -3.35157,-0.043 0,0 -2.69921,0.28906 -2.93359,-3.06641 z"
         id="path980"
         style="fill:#ffffff;fill-opacity:1;fill-rule:nonzero;stroke:#ffffff;stroke-width:2.7414999;stroke-linecap:butt;stroke-linejoin:miter;stroke-miterlimit:4;stroke-opacity:1" />
      <path
         d="m 196.27344,127.65625 c -0.0117,-0.16406 -0.86328,0.33984 -1.49219,0.37891 -2.44531,0.14453 -4.23047,-0.0352 -4.23047,-0.0352 0,0 -1.30078,-0.0625 -1.83594,-0.89062 0,0 -1.8789,3.13281 -6.44531,3.0039 -4.57031,-0.125 -7.16797,-2.00391 -9.26172,-5.44531 0,0 -2.41015,1.56641 -5.22656,1.41016 -2.81641,-0.15625 -5.13281,-2.03516 -5.13281,-2.03516 0,0 0.125,5.85156 -8.07032,7.48047 0,0 -0.625,0.125 -1.72265,0 -1.09375,-0.125 -1.5,-0.97266 -1.5,-0.97266 0,0 -2.44141,-4.09765 -2.44141,-4.09765 0,0 -0.8789,-1.94141 1.25,-2.94141 0,0 1.4375,-0.4375 1.4375,-0.4375 0,0 -0.625,-0.78125 -0.625,-0.78125 0,0 -0.625,0.71875 -2,0.71875 -1.3789,0 -3.72265,0 -3.72265,0 0,0 -1.34766,-0.21875 -1.69141,-0.875 0,0 -0.59375,0.84375 -1.69141,0.84375 -1.09375,0 -4.1914,0 -4.1914,0 0,0 -0.53516,0.0312 -1.125,-0.28125 0,0 -0.0312,2.4375 -2.12891,2.4375 -2.09766,0 -4.69141,0 -4.69141,0 0,0 -2.50781,-0.12109 -2.50781,-2.53125 0,-2.41016 0,-6.16406 0,-6.16406 0,0 -3.8789,3.55468 -8.88281,2.01172 -5.00781,-1.54297 -8.67187,-5.82032 -6.63281,-12.14063 2,-6.21484 9.05078,-6.00781 9.38672,-5.92578 0.33203,0.082 4.2539,0.33594 6.33984,3.88281 0,0 1.04297,-1.7539 2.33594,-2.1289 0,0 -0.46094,-1.04297 -0.375,-2.710942 0,0 -4.12891,0 -4.12891,0 0,0 -2.5664,-0.167969 -2.67187,-3.273438 -0.10547,-3.109375 0.125,-8.242187 0,-13.832031 0,0 0.14843,-2.441406 2.58203,-2.628906 2.42578,-0.183594 3.89453,-0.05469 3.89453,-0.05469 0,0 2.34765,-0.05859 2.41015,2.160156 0,0 0.0312,2.753907 0.0312,3.035157 0,0 2.81641,-1.34375 5.66407,0.28125 0,0 0.9375,-1.65625 2.91015,-1.375 1.96875,0.28125 3.47266,0.8125 3.47266,0.8125 0,0 2.03516,0.5 2.09766,2.691406 0,0 0.96875,-2.003906 2.59375,-1.972656 1.6289,0.03125 3.88281,0.628906 3.88281,0.628906 0,0 1.34375,0.40625 1.5625,1.53125 0,0 0.0625,-2.941406 0.0625,-2.941406 0,0 -0.125,-1.785157 1.6914,-2.003907 1.8125,-0.21875 5.16407,-0.09375 5.16407,-0.09375 0,0 2.28125,-0.03125 2.25,2.347657 0,0 0.0312,1.3125 0.0312,1.3125 0,0 3.2539,-1.5 6.54297,0.06641 2.95703,1.410156 4.75,4.75 2.78515,8.949219 -0.21484,0.457031 -0.47656,0.929687 -0.78515,1.40625 0,0 0.28125,2.972656 -2.66016,3.628905 -2.94141,0.65625 -6.03906,-1.218749 -6.03906,-1.218749 0,0 0.3164,3.816409 -6.47657,2.722659 0,0 -1.67187,2.58203 -5.22265,2.5039 -4.19531,-0.0937 -5.23047,-2.28515 -5.23047,-2.28515 0,0 -3.53516,1.8125 -7.44531,0 0,0 -0.4375,1.40625 -2.1875,1.78125 0,0 0.87109,1.09765 0.5625,3.72656 0,0 4.3164,-0.69141 4.3164,-0.69141 0,0 1.4375,-0.3125 1.94141,0.44141 0,0 2.45312,-1.02344 4.78516,-0.28516 1.97265,0.62891 3.94531,1.97266 3.84765,6.41406 0,0 5.28906,-3.97265 8.64063,-1.8125 0,0 0.125,-1.6289 0.125,-1.6289 0,0 0.0312,-1.0625 1.375,-0.90625 0,0 0.0937,-3.50391 0.0937,-3.50391 0,0 -0.125,-1.97265 2.53125,-1.78515 2.66406,0.1875 5.13672,0.72265 5.13672,0.72265 0,0 1.625,0.0937 1.625,2.375 0,0 -0.0937,1.59766 -0.0937,1.59766 0,0 1.91015,0.0312 1.91015,0.0312 0,0 1.625,0.0937 1.625,2.1914 0,0 -0.0273,4.12891 -0.0273,4.12891 0,0 2.40625,-3.00391 6.53515,-2.97266 3.16016,0.0234 5.42188,1.53125 6.7461,3.21875 0,0 -0.1875,-1.82812 -0.1875,-1.82812 0,0 0,-1.24219 0.51172,-1.71484 0,0 -1.53125,-3.2461 1.16797,-5.54688 2.17187,-1.85156 5.43359,-1.53125 7.11328,0.0742 1.67968,1.60547 1.85937,3.64844 1.02343,5.61719 0,0 0.54688,0.54687 0.4375,1.64062 -0.0977,0.94141 -0.10546,1.5586 -0.10546,1.5586 0,0 3.74218,-0.55079 3.74218,-0.55079 0,0 1.50391,-0.42968 2.65235,0.36719 0,0 3.35937,-1.47265 6.33593,0.36719 0,0 -0.20703,-3.375 3.21875,-5.64453 2.36329,-1.5625 4.75782,-1.8711 4.75782,-1.8711 0,0 2.45312,-0.70312 3.67968,1.19532 0,0 1.92969,3.4375 1.92969,3.4375 0,0 0.64453,1.47265 0,2.45312 -0.64062,0.98047 -0.82812,1.32031 -1.99219,1.5625 0,0 1.99219,1.9336 1.96485,4.41797 -0.0312,2.48828 -0.85938,4.78516 -3.25391,6.19922 0,0 -2.69922,1.77734 -4.66406,1.89844 0,0 -1.96094,0.58203 -3.06641,-0.39844 0,0 -0.0586,1.28906 -1.01172,1.99609 -0.94921,0.70313 -2.05468,0.70313 -2.05468,0.70313 0,0 -3.1875,0 -3.1875,0 0,0 -1.60547,-0.082 -2.13672,-0.81641 0,0 -0.82031,0.85938 -2.17188,0.77734 0,0 -3.35156,-0.043 -3.35156,-0.043 0,0 -2.69922,0.28906 -2.93359,-3.06641 z"
         id="path982"
         style="fill:#0a459c;fill-opacity:1;fill-rule:nonzero;stroke:none" />
      <path
         d="m 134.00391,90.402344 c -1.35157,0 -2.05079,-0.84375 -2.05079,-1.796875 0,-0.96875 0.84766,-1.792969 2.05079,-1.792969 1.18359,0 2.02734,0.824219 2.02734,1.792969 0,0.953125 -0.50781,1.796875 -2.02734,1.796875 z m 1.7539,5.871094 c 0,0.886718 0.0625,4.015622 0.0625,4.476562 -0.0195,0.21094 -0.0859,0.23438 -0.2539,0.25391 -0.16797,0.0234 -1.09766,0.0664 -1.58204,0.0664 -0.48437,0 -1.4375,-0.043 -1.58593,-0.0664 -0.21094,-0.043 -0.27344,-0.043 -0.29297,-0.29297 0,-0.42188 0.0625,-3.550784 0.0625,-4.437502 0,-1.519532 -0.12891,-3.949219 -0.23438,-4.667969 -0.043,-0.316406 -0.043,-0.421875 0.25391,-0.421875 0.25391,0.01953 1.09766,0.128906 1.77344,0.128906 0.67968,0 1.52343,-0.109375 1.79687,-0.109375 0.25391,0 0.27344,0.08594 0.23047,0.402344 -0.10156,0.78125 -0.23047,3.824219 -0.23047,4.667969 z"
         id="path984"
         style="fill:#ffb300;fill-opacity:1;fill-rule:nonzero;stroke:none" />
      <path
         d="m 145.31641,97.664063 c -0.0195,0.421875 -0.043,0.800781 -0.043,0.925781 0,0.339844 0,0.382812 -0.40235,0.59375 -0.4414,0.253906 -1.64843,0.738281 -2.95703,0.738281 -1.66797,0 -3.01953,-0.589844 -2.97656,-2.277344 0.0195,-0.78125 0.10547,-3.804687 0.10547,-4.101562 0,-0.273438 -0.0859,-0.398438 -0.27735,-0.421875 -0.20703,-0.01563 -0.58593,-0.01563 -0.69531,-0.03906 -0.125,-0.02344 -0.21094,-0.06641 -0.21094,-0.253906 0,-0.171875 0.043,-0.785156 0.043,-1.015625 0,-0.230469 0,-1.011719 -0.043,-1.226562 -0.0195,-0.210938 0.0859,-0.3125 0.27735,-0.3125 0.39844,0 0.75781,0.01953 0.78125,-0.214844 0.0195,-0.230469 0,-1.097656 0,-1.605469 0,-0.503906 -0.0234,-1.5 0.0195,-1.773437 0.0195,-0.191407 0.0625,-0.378907 0.29687,-0.316407 0.23047,0.04297 1.1211,0.253907 1.51954,0.273438 0.40234,0.04297 1.41406,0.171875 1.58203,0.191406 0.1914,0 0.29687,0.0625 0.25781,0.277344 -0.0664,0.398437 -0.12891,2.089844 -0.12891,2.40625 0,0.292969 0.0625,0.507812 0.29688,0.507812 0.21094,0 1.96094,-0.04297 2.19531,-0.06641 0.21094,-0.01953 0.25391,0.06641 0.21094,0.296875 -0.043,0.230469 -0.082,0.910156 -0.082,1.289063 0,0.378906 0,1.265625 0.0195,1.4375 0.0195,0.1875 -0.12891,0.230468 -0.42188,0.210937 -0.2539,-0.02344 -1.77343,-0.02344 -2.02734,-0.02344 -0.23438,0 -0.14844,0.191406 -0.14844,1.921875 0,0.699218 0.0195,1.097656 0.33594,1.351562 0.40234,0.339844 1.07812,0.402344 2.26172,0.0625 0.125,-0.04297 0.33594,-0.01953 0.3164,0.210938 -0.0195,0.128906 -0.0625,0.550781 -0.10546,0.953125 z"
         id="path986"
         style="fill:#ffb300;fill-opacity:1;fill-rule:nonzero;stroke:none" />
      <path
         d="m 154.52734,99.253906 c -0.0234,0.421875 -0.043,0.800784 -0.043,0.925784 0,0.33984 0,0.38281 -0.40234,0.59375 -0.44531,0.2539 -1.64844,0.73828 -2.95703,0.73828 -1.66797,0 -3.01953,-0.58984 -2.97656,-2.277345 0.0234,-0.785156 0.10547,-3.804687 0.10547,-4.097656 0,-0.277344 -0.082,-0.402344 -0.27344,-0.425781 -0.21485,-0.01953 -0.59375,-0.01953 -0.69922,-0.04297 -0.125,-0.01953 -0.21094,-0.0625 -0.21094,-0.25 0,-0.171875 0.043,-0.785156 0.043,-1.015625 0,-0.230469 0,-1.011719 -0.043,-1.222656 -0.0234,-0.210938 0.0859,-0.316407 0.27344,-0.316407 0.40234,0 0.76172,0.01953 0.78125,-0.214843 0.0234,-0.230469 0,-1.097657 0,-1.601563 0,-0.507812 -0.0195,-1.5 0.0234,-1.777344 0.0234,-0.1875 0.0625,-0.378906 0.29297,-0.316406 0.23437,0.04297 1.12109,0.253906 1.52343,0.277344 0.40235,0.03906 1.41407,0.167969 1.58203,0.1875 0.19141,0 0.29688,0.0625 0.25391,0.273437 -0.0625,0.402344 -0.12891,2.089844 -0.12891,2.410157 0,0.292968 0.0664,0.507812 0.30079,0.507812 0.20703,0 1.96093,-0.04297 2.19531,-0.06641 0.21094,-0.01953 0.25,0.06641 0.21094,0.296875 -0.043,0.230469 -0.0859,0.910156 -0.0859,1.289062 0,0.378907 0,1.265625 0.0234,1.433594 0.0195,0.191406 -0.12891,0.234375 -0.42579,0.214844 -0.2539,-0.02344 -1.77343,-0.02344 -2.02734,-0.02344 -0.23047,0 -0.14453,0.191407 -0.14453,1.921875 0,0.699219 0.0195,1.097657 0.33594,1.351563 0.40234,0.339844 1.07812,0.402344 2.26172,0.06641 0.125,-0.04297 0.33593,-0.02344 0.3164,0.210938 -0.0234,0.125 -0.0625,0.546875 -0.10547,0.949218 z"
         id="path988"
         style="fill:#ffb300;fill-opacity:1;fill-rule:nonzero;stroke:none" />
      <path
         d="m 159.99219,92.886719 c 0,4.246094 0.0391,5.535156 0.082,5.957031 0.0195,0.210938 -0.082,0.230469 -0.25391,0.253906 -0.23047,0.04297 -1.18359,0.08203 -1.66797,0.08203 -0.48437,0 -1.32812,-0.01953 -1.58203,-0.08203 -0.17187,-0.04297 -0.23437,-0.04297 -0.2539,-0.277343 -0.0234,-0.335938 0.043,-5.089844 0.043,-5.933594 0,-5.996094 -0.17187,-7.328125 -0.2539,-7.875 -0.043,-0.320313 0,-0.425781 0.2539,-0.402344 0.27344,0 1.11719,0.03906 1.79297,0.03906 0.65625,0 1.60547,-0.03906 1.87891,-0.03906 0.25391,0 0.25391,0.08203 0.23437,0.402344 -0.0859,0.84375 -0.27343,7.03125 -0.27343,7.875 z"
         id="path990"
         style="fill:#ffb300;fill-opacity:1;fill-rule:nonzero;stroke:none" />
      <path
         d="m 129.05078,90.59375 c 0,4.242188 0.0391,5.53125 0.082,5.957031 0.0234,0.210938 -0.082,0.230469 -0.2539,0.253907 -0.23047,0.03906 -1.1836,0.08203 -1.66797,0.08203 -0.48438,0 -1.32813,-0.02344 -1.58203,-0.08203 -0.16797,-0.04297 -0.23438,-0.04297 -0.25782,-0.277344 -0.0156,-0.339844 0.043,-5.089844 0.043,-5.933594 0,-6 -0.16797,-7.328125 -0.2539,-7.878906 -0.0391,-0.316406 0,-0.421875 0.2539,-0.402344 0.27735,0 1.1211,0.04297 1.79688,0.04297 0.65234,0 1.60547,-0.04297 1.8789,-0.04297 0.25391,0 0.25391,0.08594 0.23438,0.402344 -0.0859,0.847656 -0.27344,7.035156 -0.27344,7.878906 z"
         id="path992"
         style="fill:#ffb300;fill-opacity:1;fill-rule:nonzero;stroke:none" />
      <path
         d="m 167,90.078125 c -0.76953,-0.269531 -1.41406,0.316406 -1.72656,0.945313 -0.10938,0.203125 -0.0703,0.257812 0.26562,0.382812 0.26953,0.09375 1.26953,0.402344 1.90625,0.597656 0.25391,0.08594 0.31641,0.03125 0.33594,-0.02344 0.22656,-0.664063 0.10547,-1.582031 -0.78125,-1.902344 z m 2.55469,4.4375 c -0.73047,-0.210937 -4.52735,-1.433594 -4.9375,-1.589844 -0.13282,0.699219 0.40625,1.449219 1.3789,1.867188 0.99219,0.425781 1.89844,0.28125 2.39453,0.128906 0.14454,-0.04297 0.16407,0.0078 0.1875,0.09766 0.082,0.285157 0.13282,0.839844 0.14844,0.992188 0.0234,0.09375 0.0898,0.800781 0.0352,1.105469 -0.0195,0.09375 -0.0898,0.167968 -0.23828,0.226562 -0.89844,0.359375 -2.02344,0.445313 -3.69532,-0.269531 -2.98437,-1.289063 -3.67187,-3.953125 -2.64843,-6.332031 1.13672,-2.640625 3.63281,-3.746094 6.17187,-2.65625 1.82031,0.785156 3.21485,3.054687 2.17578,5.695312 -0.2539,0.589844 -0.69922,0.8125 -0.97265,0.734375 z"
         id="path994"
         style="fill:#ffb300;fill-opacity:1;fill-rule:nonzero;stroke:none" />
      <path
         d="m 132.01562,108.9375 c -1.77734,0 -2.69531,-1.10937 -2.69531,-2.35937 0,-1.27735 1.10938,-2.35938 2.69531,-2.35938 1.55469,0 2.66407,1.08203 2.66407,2.35938 0,1.25 -0.66407,2.35937 -2.66407,2.35937 z m 2.30079,7.71875 c 0,1.16797 0.0859,5.27734 0.0859,5.88672 -0.0273,0.27734 -0.11328,0.30859 -0.33203,0.33594 -0.22265,0.0273 -1.44531,0.082 -2.08594,0.082 -0.63671,0 -1.88671,-0.0547 -2.07812,-0.082 -0.28125,-0.0586 -0.36328,-0.0586 -0.39063,-0.39063 0,-0.55469 0.082,-4.66406 0.082,-5.83203 0,-1.99609 -0.16797,-5.19141 -0.30469,-6.13281 -0.0547,-0.41797 -0.0547,-0.5586 0.33203,-0.5586 0.33594,0.0273 1.44531,0.16797 2.33203,0.16797 0.89063,0 2,-0.14062 2.35938,-0.14062 0.33593,0 0.36328,0.11328 0.30859,0.53125 -0.14063,1.02734 -0.30859,5.02344 -0.30859,6.13281 z"
         id="path996"
         style="fill:#ffb300;fill-opacity:1;fill-rule:nonzero;stroke:none" />
      <path
         d="m 149.10937,120.80469 c -0.26953,0.0234 -1.38671,0.0508 -1.76171,0.0508 -0.3711,0 -1.63282,-0.0273 -1.88282,-0.0781 -0.29687,-0.0469 -0.37109,-0.12109 -0.37109,-0.49609 0,-0.34766 0.0742,-2.97266 0.0742,-3.44531 0,-0.47266 -0.0508,-2.42969 -0.0508,-2.67578 0,-1.16797 -0.41797,-1.66407 -1.4375,-1.66407 -0.86719,0 -1.78516,0.89454 -1.78516,1.31641 0,0.39453 -0.0234,2.48047 -0.0234,3 0,0.51953 0.0234,3.22266 0.0234,3.54297 0,0.35156 -0.0469,0.42187 -0.37109,0.44922 -0.29688,0.0234 -1.28907,0.0508 -1.73438,0.0508 -0.49609,0 -1.16406,0 -1.83594,-0.0781 -0.29687,-0.0234 -0.37109,-0.17187 -0.37109,-0.39453 0,-0.30078 0.0234,-5.33203 0.0234,-5.70312 0,-2.80078 -0.2461,-3.99219 -0.46875,-4.73438 -0.0508,-0.17578 -0.0508,-0.39843 0.14844,-0.44531 0.19921,-0.0273 1.68359,-0.19922 2.03125,-0.27344 0.375,-0.0781 1.85937,-0.32422 2.03515,-0.375 0.17188,-0.0234 0.22266,0 0.27344,0.27344 0.0469,0.19922 0.12109,0.79297 0.12109,1.08984 0.0234,0.27344 0.125,0.375 0.375,0.14844 0.29688,-0.21875 0.94141,-0.66797 1.48438,-0.96484 0.57031,-0.32422 1.48828,-0.59375 2.10937,-0.59375 1.19141,0 2.05469,0.29687 2.67578,0.8164 0.6211,0.52344 1.04297,1.33985 1.04297,2.23047 0,0.86719 0,3 0,3.86719 0,0.84375 0.0234,4.44141 0.0234,4.71094 0,0.27734 -0.0742,0.34765 -0.34766,0.375 z"
         id="path998"
         style="fill:#ffb300;fill-opacity:1;fill-rule:nonzero;stroke:none" />
      <path
         d="M 160.41406,116.8125 C 159,116.46484 157.52344,117 157.33203,118.06641 c -0.0937,0.6289 -0.0937,0.91406 1.32031,2.32812 1.26172,1.32031 1.63672,2.26172 1.66797,3.45703 0.0312,0.91016 -0.40625,2.51563 -1.19531,3.17578 -1.44531,1.22266 -3.14063,2.10547 -5.53125,2.35938 -0.28516,0.0273 -0.3125,0 -0.47266,-0.16016 -0.22265,-0.1875 -0.7539,-1.0039 -1.03515,-1.50781 -0.31641,-0.50391 -0.72657,-1.22656 -0.94532,-1.66797 -0.15625,-0.28125 -0.21875,-0.5 0.0312,-0.53125 2.80079,-0.47265 3.33204,-0.6914 3.49219,-1.63672 0.125,-0.7539 -0.5664,-1.60156 -1.67187,-2.70312 -1.09766,-1.09766 -1.47657,-2.39063 -1.28516,-3.61719 0.41016,-2.57422 2.92578,-4.27344 6.50781,-4.71094 0.375,-0.0312 0.40625,-0.0312 0.59766,0.21875 0.15625,0.21875 0.72266,1.16016 0.91016,1.54297 0.21875,0.34375 0.84765,1.63281 0.91406,1.78906 0.0312,0.0937 -0.16016,0.41016 -0.22266,0.41016 z"
         id="path1000"
         style="fill:#ffb300;fill-opacity:1;fill-rule:nonzero;stroke:none" />
      <path
         d="m 172.56641,120.77734 c -0.0273,0.5625 -0.0547,1.07032 -0.0547,1.23829 0,0.45312 0,0.50781 -0.53516,0.78906 -0.58984,0.33984 -2.19531,0.98828 -3.94531,0.98828 -2.22656,0 -4.02734,-0.78906 -3.97266,-3.04297 0.0273,-1.04297 0.14063,-5.07422 0.14063,-5.46875 0,-0.36719 -0.11328,-0.53516 -0.36719,-0.5625 -0.28125,-0.0273 -0.78516,-0.0273 -0.92969,-0.0547 -0.16797,-0.0273 -0.28125,-0.0859 -0.28125,-0.33984 0,-0.22656 0.0586,-1.04297 0.0586,-1.35156 0,-0.3086 0,-1.35157 -0.0586,-1.63672 -0.0273,-0.28125 0.11328,-0.42188 0.36719,-0.42188 0.53516,0 1.01563,0.0312 1.04297,-0.28125 0.0273,-0.30859 0,-1.46484 0,-2.14062 0,-0.67578 -0.0273,-2 0.0273,-2.36719 0.0273,-0.25391 0.0859,-0.50781 0.39453,-0.42187 0.3125,0.0547 1.49219,0.33593 2.02735,0.36718 0.53515,0.0547 1.89062,0.22266 2.11719,0.25 0.25,0 0.39453,0.0859 0.33593,0.36719 -0.0859,0.53516 -0.17187,2.78906 -0.17187,3.21484 0,0.39063 0.0859,0.67579 0.39844,0.67579 0.28125,0 2.61718,-0.0547 2.92968,-0.0859 0.28125,-0.0273 0.33594,0.0859 0.28125,0.39453 -0.0586,0.30859 -0.11328,1.21094 -0.11328,1.71875 0,0.50781 0,1.69141 0.0273,1.91797 0.0273,0.25 -0.16797,0.30859 -0.5625,0.28125 -0.33594,-0.0312 -2.36719,-0.0312 -2.70313,-0.0312 -0.3125,0 -0.19922,0.25781 -0.19922,2.5664 0,0.92969 0.0273,1.46485 0.45313,1.80469 0.53515,0.44922 1.43359,0.53516 3.01172,0.082 0.16796,-0.0586 0.45312,-0.0273 0.42578,0.28125 -0.0312,0.17188 -0.0859,0.73438 -0.14453,1.26953 z"
         id="path1002"
         style="fill:#ffb300;fill-opacity:1;fill-rule:nonzero;stroke:none" />
      <path
         d="m 180.64453,117.32813 c -1.17578,0.082 -1.69531,1.23046 -1.75,2.24218 -0.0273,0.32813 0.0547,0.38282 0.57422,0.35547 0.41016,-0.0273 1.91406,-0.1914 2.875,-0.30078 0.37891,-0.0273 0.43359,-0.13672 0.43359,-0.21875 -0.082,-1.01172 -0.76562,-2.16016 -2.13281,-2.07812 z m 5.93359,4.43359 c -1.09375,0.13281 -6.83593,0.67969 -7.46484,0.70703 0.22266,1.01172 1.36719,1.69922 2.89844,1.69922 1.55859,0 2.67969,-0.71484 3.25781,-1.20703 0.16406,-0.13672 0.21484,-0.082 0.30078,0.0273 0.27344,0.32813 0.65625,1.04297 0.76563,1.23047 0.0781,0.10938 0.57422,1.01172 0.68359,1.45313 0.0273,0.13671 -0.0273,0.27343 -0.19141,0.4375 -0.98437,0.98046 -2.43359,1.74609 -5.0625,1.74609 -4.70312,0 -7.13671,-3.14453 -7.13671,-6.89063 0,-4.15625 2.67968,-7.05468 6.67187,-7.05468 2.875,0 6.01953,2.21484 6.15234,6.3164 0,0.92969 -0.46093,1.48047 -0.875,1.53516 z"
         id="path1004"
         style="fill:#ffb300;fill-opacity:1;fill-rule:nonzero;stroke:none" />
      <path
         d="m 118.50781,106.29297 c -1.07812,0.47656 -1.17968,1.73047 -0.88672,2.70312 0.082,0.32032 0.17969,0.34375 0.66016,0.14063 0.375,-0.16406 1.73438,-0.82813 2.60156,-1.25781 0.34766,-0.15235 0.36719,-0.27344 0.33594,-0.35157 -0.42187,-0.92578 -1.45312,-1.77343 -2.71094,-1.23437 z m 7.08594,2.15625 c -0.98437,0.5 -6.20312,2.96094 -6.78516,3.19922 0.55079,0.8789 1.86329,1.13281 3.30079,0.61328 1.46875,-0.52734 2.28125,-1.57422 2.65625,-2.23438 0.10937,-0.18359 0.17968,-0.15234 0.28906,-0.0781 0.37109,0.21875 0.97656,0.75781 1.14062,0.90234 0.11328,0.0742 0.88282,0.75391 1.13282,1.12891 0.0742,0.12109 0.0664,0.26953 -0.0312,0.48047 -0.58985,1.25781 -1.69532,2.46875 -4.16797,3.35937 -4.42578,1.59375 -7.78125,-0.53906 -9.05078,-4.0625 -1.41016,-3.91406 0.1289,-7.55078 3.88671,-8.90234 2.70313,-0.97266 6.41016,0.043 7.9336,3.85937 0.3125,0.875 0.0625,1.54297 -0.30469,1.73438 z"
         id="path1006"
         style="fill:#ffb300;fill-opacity:1;fill-rule:nonzero;stroke:none" />
      <path
         d="m 192.87109,111.63672 c -1.77734,0 -2.6914,-1.10938 -2.6914,-2.35938 0,-1.27734 1.10937,-2.35937 2.6914,-2.35937 1.55469,0 2.66407,1.08203 2.66407,2.35937 0,1.25 -0.66407,2.35938 -2.66407,2.35938 z m 2.30469,7.71875 c 0,1.16797 0.082,5.28125 0.082,5.88672 -0.0273,0.27734 -0.10937,0.30859 -0.33203,0.33594 -0.22266,0.0273 -1.44531,0.082 -2.08203,0.082 -0.64063,0 -1.89063,-0.0547 -2.08203,-0.082 -0.27735,-0.0586 -0.36328,-0.0586 -0.39063,-0.39063 0,-0.55078 0.082,-4.66406 0.082,-5.83203 0,-1.99609 -0.16796,-5.19141 -0.30468,-6.13281 -0.0547,-0.41797 -0.0547,-0.5586 0.33593,-0.5586 0.33204,0.0273 1.44141,0.16797 2.33204,0.16797 0.88671,0 1.99609,-0.14062 2.35937,-0.14062 0.33594,0 0.35938,0.11328 0.30469,0.53125 -0.13672,1.02734 -0.30469,5.02343 -0.30469,6.13281 z"
         id="path1008"
         style="fill:#ffb300;fill-opacity:1;fill-rule:nonzero;stroke:none" />
      <path
         d="m 210.29297,128.32812 c -0.26953,0.0273 -1.38672,0.0508 -1.76172,0.0508 -0.37109,0 -1.63281,-0.0234 -1.88281,-0.0742 -0.29688,-0.0508 -0.3711,-0.125 -0.3711,-0.4961 0,-0.34765 0.0742,-2.97656 0.0742,-3.44531 0,-0.47265 -0.0508,-2.43359 -0.0508,-2.67969 0,-1.16406 -0.42187,-1.66015 -1.4375,-1.66015 -0.86719,0 -1.78516,0.89062 -1.78516,1.3125 0,0.39844 -0.0234,2.48047 -0.0234,3 0,0.51953 0.0234,3.22265 0.0234,3.54687 0,0.34766 -0.0469,0.42188 -0.36718,0.44531 -0.30078,0.0273 -1.29297,0.0508 -1.73828,0.0508 -0.4961,0 -1.16797,0 -1.83594,-0.0742 -0.29688,-0.0234 -0.3711,-0.17578 -0.3711,-0.39844 0,-0.29687 0.0234,-5.32812 0.0234,-5.69922 0,-2.80469 -0.24609,-3.99609 -0.46875,-4.73828 -0.0508,-0.17578 -0.0508,-0.39453 0.14844,-0.44531 0.19922,-0.0234 1.68359,-0.19922 2.03125,-0.27344 0.375,-0.0742 1.85937,-0.32031 2.03516,-0.37109 0.17578,-0.0273 0.21875,0 0.26953,0.27343 0.0508,0.19532 0.125,0.79297 0.125,1.08985 0.0234,0.26953 0.125,0.37109 0.37109,0.14844 0.30078,-0.22266 0.94141,-0.66797 1.48828,-0.96875 0.57031,-0.32032 1.48828,-0.58985 2.10938,-0.58985 1.1875,0 2.05468,0.29297 2.67578,0.81641 0.62109,0.51953 1.04297,1.33594 1.04297,2.23047 0,0.86718 0,3 0,3.86718 0,0.84375 0.0234,4.4375 0.0234,4.71094 0,0.27344 -0.0742,0.34766 -0.34765,0.37109 z"
         id="path1010"
         style="fill:#ffb300;fill-opacity:1;fill-rule:nonzero;stroke:none" />
      <path
         d="m 221.76172,113.62109 c -1.41406,-0.34765 -2.89453,0.1875 -3.08203,1.25782 -0.0937,0.6289 -0.0937,0.91015 1.32031,2.32422 1.26172,1.32031 1.63672,2.26171 1.66797,3.45703 0.0312,0.91406 -0.40625,2.51562 -1.19531,3.17578 -1.44532,1.22656 -3.14454,2.10547 -5.53125,2.35937 -0.28516,0.0312 -0.31641,0 -0.47266,-0.15625 -0.22266,-0.1914 -0.75391,-1.00781 -1.03906,-1.51172 -0.3125,-0.5039 -0.72266,-1.22265 -0.94141,-1.66406 -0.15625,-0.28515 -0.21875,-0.5039 0.0312,-0.53515 2.79688,-0.47266 3.33203,-0.69141 3.49219,-1.63672 0.125,-0.75391 -0.57031,-1.60157 -1.66797,-2.69922 -1.10156,-1.10156 -1.48047,-2.39063 -1.28906,-3.61719 0.41015,-2.57812 2.92578,-4.27344 6.50781,-4.71484 0.375,-0.0312 0.40625,-0.0312 0.59766,0.21875 0.15625,0.22265 0.72265,1.16406 0.91015,1.54297 0.21875,0.34375 0.84766,1.63281 0.91406,1.78906 0.0312,0.0977 -0.16015,0.41015 -0.22265,0.41015 z"
         id="path1012"
         style="fill:#ffb300;fill-opacity:1;fill-rule:nonzero;stroke:none" />
    </g>
  </g>
</svg>
